<svg width="256" height="256" viewBox="0 0 256 256" fill="none" xmlns="http://www.w3.org/2000/svg">
<circle cx="128" cy="128" r="128" fill="#F4BB62"/>
<path d="M47.486 71.1828C47.7453 71.8541 54.5175 89.3721 62.521 110.119L77.0375 147.84L86.0779 147.936L95.1183 148L109.991 109.416C118.157 88.1574 124.929 70.6074 124.994 70.3836C125.123 70.0959 123.244 70 116.31 70H107.431L102.117 84.9607C89.2534 121.148 88.2165 124.312 86.9204 130.546C86.5964 132.144 86.1751 133.455 85.9807 133.519C85.7863 133.583 85.5595 132.911 85.4299 131.984C84.7494 127.03 82.1896 118.91 73.8944 95.5738C69.0988 82.1156 65.1132 70.8631 64.9836 70.5434C64.7568 70.032 64.0439 70 55.8784 70H47L47.486 71.1828Z" fill="#2F1B5A"/>
<path d="M131.648 71.6623C132.005 72.5893 138.745 90.1074 146.652 110.598L161.007 147.84L170.048 147.904L179.089 148L193.996 109.288C202.194 87.9975 208.967 70.4475 208.999 70.2877C209.064 70.1279 205.467 70 200.25 70H191.403L182.751 94.359C173.645 120.029 172.317 124.025 171.15 129.459C170.729 131.313 170.372 133.007 170.307 133.199C170.048 134.222 169.659 133.391 169.108 130.642C167.942 124.6 165.998 118.494 158.123 96.373C153.684 83.8738 149.763 72.8451 149.374 71.8221L148.693 70H139.847H131L131.648 71.6623Z" fill="#2F1B5A"/>
<path d="M85.1813 174.303L81 176.639L81.8299 178.12C90.7989 194.341 103.183 204.639 117.642 207.864C138.453 212.503 160.349 202.665 172.414 183.318C173.85 181.015 176.18 176.475 175.989 176.31C175.925 176.244 173.978 175.323 171.648 174.204L167.435 172.23L166.765 173.612C161.849 183.68 153.423 191.774 143.432 196.019C135.133 199.539 125.686 200.132 117.355 197.664C107.205 194.604 98.1082 186.773 91.2458 175.126L89.3945 172L85.1813 174.303Z" fill="#2F1B5A"/>
</svg>
