<svg width="80" height="80" viewBox="0 0 80 80" fill="none" xmlns="http://www.w3.org/2000/svg">
<line y1="-1" x2="105.62" y2="-1" transform="matrix(0.717792 -0.696258 0.717792 0.696258 2.47424 75.9391)" stroke="#23B5EC" stroke-width="2"/>
<rect y="47.2" width="11.5464" height="11.2" fill="#7649C5"/>
<rect x="21.4432" y="29.6" width="11.5464" height="11.2" fill="#7649C5"/>
<rect x="2.47424" y="2.40002" width="11.5464" height="11.2" fill="#7649C5"/>
<path d="M0.412354 23.2H11.9587V34.4H0.412354V23.2Z" fill="#7649C5"/>
<rect x="51.134" width="11.5464" height="11.2" fill="#7649C5"/>
<rect x="29.6907" y="8.80005" width="11.5464" height="11.2" fill="#7649C5"/>
<path d="M40.8247 52.8L46.1816 61.8H35.4679L40.8247 52.8Z" fill="#00FF7F"/>
<path d="M21.8557 68L27.2126 77H16.4989L21.8557 68Z" fill="#00FF7F"/>
<path d="M43.299 64.8L48.6558 73.8H37.9421L43.299 64.8Z" fill="#00FF7F"/>
<path d="M72.1649 59.2L77.5218 68.2H66.8081L72.1649 59.2Z" fill="#00FF7F"/>
<path d="M56.4949 52.8L61.8518 61.8H51.138L56.4949 52.8Z" fill="#00FF7F"/>
<path d="M73.8145 27.2L79.1713 36.2H68.4576L73.8145 27.2Z" fill="#00FF7F"/>
<path d="M53.1959 36L58.5528 45H47.8391L53.1959 36Z" fill="#00FF7F"/>
<path d="M68.866 43.2L74.2228 52.2H63.5091L68.866 43.2Z" fill="#00FF7F"/>
</svg>
