<svg width="61" height="60" viewBox="0 0 61 60" fill="none" xmlns="http://www.w3.org/2000/svg">
<line x1="0.928589" y1="60" x2="0.928589" y2="1.69315" stroke="#7649C5"/>
<line x1="1" y1="59.4968" x2="60.1429" y2="59.4968" stroke="#7649C5"/>
<line y1="-0.5" x2="15.2583" y2="-0.5" transform="matrix(0.337053 -0.941486 0.94446 0.328627 7 18.5906)" stroke="#7649C5"/>
<line y1="-0.5" x2="54.599" y2="-0.5" transform="matrix(-0.329676 -0.944094 0.946947 -0.32139 30.1428 55.7717)" stroke="#7649C5"/>
<line y1="-0.5" x2="9.90745" y2="-0.5" transform="matrix(-0.34606 0.938212 -0.941338 -0.337466 32.7142 46.4765)" stroke="#7649C5"/>
<ellipse cx="35.2857" cy="39.7163" rx="5.14286" ry="5.07016" fill="#7649C5"/>
<line x1="4.42859" y1="37.5262" x2="8.7143" y2="37.5262" stroke="#7649C5"/>
<line x1="18.1428" y1="37.5262" x2="22.4285" y2="37.5262" stroke="#7649C5"/>
<line x1="56.7142" y1="37.5262" x2="60.9999" y2="37.5262" stroke="#7649C5"/>
<line x1="49.8572" y1="37.5262" x2="54.1429" y2="37.5262" stroke="#7649C5"/>
<line x1="43" y1="37.5262" x2="47.2857" y2="37.5262" stroke="#7649C5"/>
<line x1="11.2858" y1="37.5262" x2="15.5715" y2="37.5262" stroke="#7649C5"/>
<line y1="-0.5" x2="6.94479" y2="-0.5" transform="matrix(-0.346008 0.938231 -0.941356 -0.337416 39.403 27.8859)" stroke="#7649C5"/>
<line y1="-0.5" x2="6.94479" y2="-0.5" transform="matrix(-0.346008 0.938231 -0.941356 -0.337416 42.3142 20.2807)" stroke="#7649C5"/>
<ellipse cx="45.5714" cy="12.6754" rx="12" ry="11.8304" fill="#7649C5"/>
<path d="M43.7216 15.9091V15.8239C43.7311 14.9195 43.8258 14.1998 44.0057 13.6648C44.1856 13.1297 44.4413 12.6965 44.7727 12.3651C45.1042 12.0336 45.5019 11.7282 45.9659 11.4489C46.2453 11.2784 46.4962 11.0772 46.7188 10.8452C46.9413 10.6084 47.1165 10.3362 47.2443 10.0284C47.3769 9.72064 47.4432 9.37973 47.4432 9.00568C47.4432 8.54167 47.3343 8.1392 47.1165 7.7983C46.8987 7.45739 46.6075 7.1946 46.2429 7.00994C45.8783 6.82528 45.4735 6.73295 45.0284 6.73295C44.6402 6.73295 44.2661 6.81345 43.9062 6.97443C43.5464 7.13542 43.2457 7.38873 43.0043 7.73438C42.7628 8.08002 42.6231 8.5322 42.5852 9.09091H40.7955C40.8333 8.28598 41.0417 7.59706 41.4205 7.02415C41.804 6.45123 42.3082 6.01326 42.9332 5.71023C43.563 5.4072 44.2614 5.25568 45.0284 5.25568C45.8617 5.25568 46.5862 5.4214 47.2017 5.75284C47.822 6.08428 48.3002 6.53883 48.6364 7.11648C48.9773 7.69413 49.1477 8.35227 49.1477 9.09091C49.1477 9.61174 49.0672 10.0829 48.9062 10.5043C48.75 10.9257 48.5227 11.3021 48.2244 11.6335C47.9309 11.965 47.5758 12.2585 47.1591 12.5142C46.7424 12.7746 46.4086 13.0492 46.1577 13.3381C45.9067 13.6222 45.7244 13.9607 45.6108 14.3537C45.4972 14.7467 45.4356 15.2367 45.4261 15.8239V15.9091H43.7216ZM44.6307 20.1136C44.2803 20.1136 43.9796 19.9882 43.7287 19.7372C43.4777 19.4863 43.3523 19.1856 43.3523 18.8352C43.3523 18.4848 43.4777 18.1842 43.7287 17.9332C43.9796 17.6823 44.2803 17.5568 44.6307 17.5568C44.9811 17.5568 45.2817 17.6823 45.5327 17.9332C45.7836 18.1842 45.9091 18.4848 45.9091 18.8352C45.9091 19.0672 45.8499 19.2803 45.7315 19.4744C45.6179 19.6686 45.464 19.8248 45.2699 19.9432C45.0805 20.0568 44.8674 20.1136 44.6307 20.1136Z" fill="white"/>
</svg>
