<?xml version="1.0" standalone="no"?>
<!DOCTYPE svg PUBLIC "-//W3C//DTD SVG 20010904//EN"
 "http://www.w3.org/TR/2001/REC-SVG-20010904/DTD/svg10.dtd">
<svg version="1.0" xmlns="http://www.w3.org/2000/svg"
 width="550.000000pt" height="506.000000pt" viewBox="0 0 550.000000 506.000000"
 preserveAspectRatio="xMidYMid meet">

<g transform="translate(0.000000,506.000000) scale(0.100000,-0.100000)"
fill="#000000" stroke="none">
<path d="M205 4583 c8 -21 217 -569 464 -1218 l448 -1180 279 -3 279 -2 459
1207 c252 665 461 1214 463 1221 4 9 -54 12 -268 12 l-274 0 -164 -468 c-397
-1132 -429 -1231 -469 -1426 -10 -50 -23 -91 -29 -93 -6 -2 -13 19 -17 48 -21
155 -100 409 -356 1139 -148 421 -271 773 -275 783 -7 16 -29 17 -281 17
l-274 0 15 -37z"/>
<path d="M2851 4568 c11 -29 219 -577 463 -1218 l443 -1165 279 -2 279 -3 460
1211 c253 666 462 1215 463 1220 2 5 -109 9 -270 9 l-273 0 -267 -762 c-281
-803 -322 -928 -358 -1098 -13 -58 -24 -111 -26 -117 -8 -32 -20 -6 -37 80
-36 189 -96 380 -339 1072 -137 391 -258 736 -270 768 l-21 57 -273 0 -273 0
20 -52z"/>
<path d="M1393 1376 l-131 -71 26 -45 c281 -493 669 -806 1122 -904 652 -141
1338 158 1716 746 45 70 118 208 112 213 -2 2 -63 30 -136 64 l-132 60 -21
-42 c-154 -306 -418 -552 -731 -681 -260 -107 -556 -125 -817 -50 -318 93
-603 331 -818 685 l-58 95 -132 -70z"/>
</g>
</svg>
