<svg xmlns="http://www.w3.org/2000/svg" viewBox="0 0 1045.79 957.03"><defs><style>.cls-1{fill:#33265f;}.cls-2{fill:#ec6a3c;}.cls-3{fill:#f5e9d7;}</style></defs><g id="Capa_60" data-name="Capa 60"><path class="cls-1" d="M536.8,777.34l-287.8-21c-53.13-3.88-82.14-63.82-52.22-107.89L358.87,409.71,521,171c29.92-44.07,96.33-39.23,119.54,8.72L766.2,439.43,891.92,699.17c23.21,48-14.2,103-67.33,99.16Z"/><path class="cls-2" d="M503.91,758.74,215.35,758c-53.27-.14-86.41-57.9-59.65-104L300.64,404.5,445.59,155c26.75-46.06,93.34-45.88,119.85.32L709.06,405.59,852.68,655.87c26.51,46.2-6.94,103.78-60.21,103.64Z"/><path class="cls-3" d="M484,699.46a41.67,41.67,0,0,1,29.57-71.23,38.34,38.34,0,0,1,28.56,12.1q11.75,12.09,11.76,29.56t-11.76,29.57a38.34,38.34,0,0,1-28.56,12.1A40.21,40.21,0,0,1,484,699.46Zm59.81-460.32-7.39,336H485.38l-7.4-336Z"/></g></svg>